# xmcd
#
# Track frame offsets:
#  150
#  16950
#  29325
#  43725
#  59954
#  78852
#  92052
#  106302
#  119952
#  131127
#  149277
#  166902
#  182427
#  206427
#  220602
#
# Disc length: 3071 seconds
#
# Revision: 0
# Processed by: cddbd v1.5.2PL0 Copyright (c) Steve Scherf et al.
# Submitted via: AltoMP3_Maker 3.0
#
DISCID=d70bfd0f
DTITLE=Neil Anthony - City Meets Country
DYEAR=1900
DGENRE=
TTITLE0=Tamworth Country Gold
TTITLE1=Ring of Fire
TTITLE2=Here Comes The Sun
TTITLE3=Don't Know Whats Going On
TTITLE4=It Just Might All be Gone
TTITLE5=Love Forever
TTITLE6=Sydney Song
TTITLE7=Hey Mate
TTITLE8=Peanut Butter on Toast
TTITLE9=Forster Tuncurry Song
TTITLE10=Bindi Hop
TTITLE11=Count On Me
TTITLE12=Over The Rainbow and Wonderful World Medley
TTITLE13=Innamorata
TTITLE14=Mattinata
EXTD=
EXTT0=
EXTT1=
EXTT2=
EXTT3=
EXTT4=
EXTT5=
EXTT6=
EXTT7=
EXTT8=
EXTT9=
EXTT10=
EXTT11=
EXTT12=
EXTT13=
EXTT14=
PLAYORDER=
